G04 #@! TF.GenerationSoftware,KiCad,Pcbnew,6.0.0-rc1-unknown-r13375-f0c57176*
G04 #@! TF.CreationDate,2018-08-09T00:22:08-05:00*
G04 #@! TF.ProjectId,led_array,6C65645F61727261792E6B696361645F,1*
G04 #@! TF.SameCoordinates,PX7445a00PY7445a00*
G04 #@! TF.FileFunction,Legend,Top*
G04 #@! TF.FilePolarity,Positive*
%FSLAX46Y46*%
G04 Gerber Fmt 4.6, Leading zero omitted, Abs format (unit mm)*
G04 Created by KiCad (PCBNEW 6.0.0-rc1-unknown-r13375-f0c57176) date Thu Aug  9 00:22:08 2018*
%MOMM*%
%LPD*%
G01*
G04 APERTURE LIST*
%ADD10C,0.203200*%
%ADD11C,0.150000*%
%ADD12C,0.101600*%
%ADD13C,0.100000*%
%ADD14C,0.127000*%
G04 APERTURE END LIST*
D10*
X26606571Y1941286D02*
X27749428Y1941286D01*
X24066571Y1941286D02*
X25209428Y1941286D01*
X24638000Y1457477D02*
X24638000Y2425096D01*
X37465000Y6136000D02*
X37404523Y5993143D01*
X37404523Y5778858D01*
X37465000Y5564572D01*
X37585952Y5421715D01*
X37706904Y5350286D01*
X37948809Y5278858D01*
X38130238Y5278858D01*
X38372142Y5350286D01*
X38493095Y5421715D01*
X38614047Y5564572D01*
X38674523Y5778858D01*
X38674523Y5921715D01*
X38614047Y6136000D01*
X38553571Y6207429D01*
X38130238Y6207429D01*
X38130238Y5921715D01*
X38674523Y7707429D02*
X38069761Y7207429D01*
X38674523Y6850286D02*
X37404523Y6850286D01*
X37404523Y7421715D01*
X37465000Y7564572D01*
X37525476Y7636000D01*
X37646428Y7707429D01*
X37827857Y7707429D01*
X37948809Y7636000D01*
X38009285Y7564572D01*
X38069761Y7421715D01*
X38069761Y6850286D01*
X38009285Y8350286D02*
X38009285Y8850286D01*
X38674523Y9064572D02*
X38674523Y8350286D01*
X37404523Y8350286D01*
X37404523Y9064572D01*
X38009285Y9707429D02*
X38009285Y10207429D01*
X38674523Y10421715D02*
X38674523Y9707429D01*
X37404523Y9707429D01*
X37404523Y10421715D01*
X38674523Y11064572D02*
X37404523Y11064572D01*
X38674523Y11921715D01*
X37404523Y11921715D01*
X2098523Y7671715D02*
X1493761Y7171715D01*
X2098523Y6814572D02*
X828523Y6814572D01*
X828523Y7386000D01*
X889000Y7528858D01*
X949476Y7600286D01*
X1070428Y7671715D01*
X1251857Y7671715D01*
X1372809Y7600286D01*
X1433285Y7528858D01*
X1493761Y7386000D01*
X1493761Y6814572D01*
X1433285Y8314572D02*
X1433285Y8814572D01*
X2098523Y9028858D02*
X2098523Y8314572D01*
X828523Y8314572D01*
X828523Y9028858D01*
X2098523Y9671715D02*
X828523Y9671715D01*
X828523Y10028858D01*
X889000Y10243143D01*
X1009952Y10386000D01*
X1130904Y10457429D01*
X1372809Y10528858D01*
X1554238Y10528858D01*
X1796142Y10457429D01*
X1917095Y10386000D01*
X2038047Y10243143D01*
X2098523Y10028858D01*
X2098523Y9671715D01*
D11*
X22956000Y4064000D02*
X28956000Y4064000D01*
G04 #@! TO.C,RED3*
G36*
X1349000Y28198000D02*
X1349000Y28448000D01*
X1124000Y28448000D01*
X1124000Y28198000D01*
X1349000Y28198000D01*
G37*
D12*
X1874000Y28248000D02*
X1874000Y28648000D01*
X1174000Y28248000D02*
X1174000Y28648000D01*
X1174000Y15040000D02*
X1174000Y15440000D01*
X1874000Y15040000D02*
X1874000Y15440000D01*
D11*
G36*
X1349000Y14990000D02*
X1349000Y15240000D01*
X1124000Y15240000D01*
X1124000Y14990000D01*
X1349000Y14990000D01*
G37*
G04 #@! TO.C,GREEN3*
G36*
X37925000Y14990000D02*
X37925000Y15240000D01*
X37700000Y15240000D01*
X37700000Y14990000D01*
X37925000Y14990000D01*
G37*
D12*
X38450000Y15040000D02*
X38450000Y15440000D01*
X37750000Y15040000D02*
X37750000Y15440000D01*
X37750000Y28248000D02*
X37750000Y28648000D01*
X38450000Y28248000D02*
X38450000Y28648000D01*
D11*
G36*
X37925000Y28198000D02*
X37925000Y28448000D01*
X37700000Y28448000D01*
X37700000Y28198000D01*
X37925000Y28198000D01*
G37*
D13*
G04 #@! TO.C,U$1*
X19840000Y616000D02*
X10640000Y616000D01*
X10640000Y3016000D02*
X10640000Y4716000D01*
X10640000Y4716000D02*
X12840000Y4716000D01*
X17640000Y4716000D02*
X19840000Y4716000D01*
X19840000Y4716000D02*
X19840000Y3016000D01*
D11*
G04 #@! TO.C,RED3*
G36*
X1349000Y1782000D02*
X1349000Y2032000D01*
X1124000Y2032000D01*
X1124000Y1782000D01*
X1349000Y1782000D01*
G37*
D12*
X1874000Y1832000D02*
X1874000Y2232000D01*
X1174000Y1832000D02*
X1174000Y2232000D01*
D11*
G04 #@! TO.C,GREEN3*
G36*
X37925000Y1782000D02*
X37925000Y2032000D01*
X37700000Y2032000D01*
X37700000Y1782000D01*
X37925000Y1782000D01*
G37*
D12*
X38450000Y1832000D02*
X38450000Y2232000D01*
X37750000Y1832000D02*
X37750000Y2232000D01*
D14*
G04 #@! TO.C,U$2*
X22479000Y10325400D02*
X20193000Y10325400D01*
X22479000Y6007400D02*
X22479000Y10325400D01*
X20193000Y6007400D02*
X22479000Y6007400D01*
X20193000Y10325400D02*
X20193000Y6007400D01*
G04 #@! TO.C,U$3*
X26508000Y8968000D02*
X27308000Y8968000D01*
X24408000Y8968000D02*
X25408000Y8968000D01*
X24908000Y9468000D02*
X24908000Y8468000D01*
X22958000Y7868000D02*
X22958000Y12368000D01*
X28858000Y7868000D02*
X22958000Y7868000D01*
X28858000Y12368000D02*
X28858000Y7868000D01*
X22958000Y12368000D02*
X28858000Y12368000D01*
G04 #@! TO.C,R1*
D12*
X7646730Y1581453D02*
X7244563Y2155977D01*
X6957301Y1581453D02*
X6957301Y2787953D01*
X7416920Y2787953D01*
X7531825Y2730500D01*
X7589278Y2673048D01*
X7646730Y2558143D01*
X7646730Y2385786D01*
X7589278Y2270881D01*
X7531825Y2213429D01*
X7416920Y2155977D01*
X6957301Y2155977D01*
X8795778Y1581453D02*
X8106349Y1581453D01*
X8451063Y1581453D02*
X8451063Y2787953D01*
X8336159Y2615596D01*
X8221254Y2500691D01*
X8106349Y2443239D01*
G04 #@! TO.C,R2*
X31428002Y1396953D02*
X31025836Y1971477D01*
X30738574Y1396953D02*
X30738574Y2603453D01*
X31198193Y2603453D01*
X31313098Y2546000D01*
X31370550Y2488548D01*
X31428002Y2373643D01*
X31428002Y2201286D01*
X31370550Y2086381D01*
X31313098Y2028929D01*
X31198193Y1971477D01*
X30738574Y1971477D01*
X31887621Y2488548D02*
X31945074Y2546000D01*
X32059979Y2603453D01*
X32347240Y2603453D01*
X32462145Y2546000D01*
X32519598Y2488548D01*
X32577050Y2373643D01*
X32577050Y2258739D01*
X32519598Y2086381D01*
X31830169Y1396953D01*
X32577050Y1396953D01*
G04 #@! TD*
M02*
