G04 #@! TF.GenerationSoftware,KiCad,Pcbnew,6.0.0-rc1-unknown-r13375-f0c57176*
G04 #@! TF.CreationDate,2018-08-09T00:22:08-05:00*
G04 #@! TF.ProjectId,led_array,6C65645F61727261792E6B696361645F,1*
G04 #@! TF.SameCoordinates,PX7445a00PY7445a00*
G04 #@! TF.FileFunction,Copper,L1,Top,Signal*
G04 #@! TF.FilePolarity,Positive*
%FSLAX46Y46*%
G04 Gerber Fmt 4.6, Leading zero omitted, Abs format (unit mm)*
G04 Created by KiCad (PCBNEW 6.0.0-rc1-unknown-r13375-f0c57176) date Thu Aug  9 00:22:08 2018*
%MOMM*%
%LPD*%
G01*
G04 APERTURE LIST*
G04 #@! TA.AperFunction,SMDPad,CuDef*
%ADD10R,0.800000X0.800000*%
G04 #@! TD*
G04 #@! TA.AperFunction,SMDPad,CuDef*
%ADD11R,1.000000X1.100000*%
G04 #@! TD*
G04 #@! TA.AperFunction,SMDPad,CuDef*
%ADD12R,1.700000X1.700000*%
G04 #@! TD*
G04 #@! TA.AperFunction,SMDPad,CuDef*
%ADD13R,1.000000X2.500000*%
G04 #@! TD*
G04 #@! TA.AperFunction,ComponentPad*
%ADD14C,1.016000*%
G04 #@! TD*
G04 #@! TA.AperFunction,ComponentPad*
%ADD15C,1.208000*%
G04 #@! TD*
G04 #@! TA.AperFunction,ViaPad*
%ADD16C,0.800000*%
G04 #@! TD*
G04 #@! TA.AperFunction,Conductor*
%ADD17C,0.381000*%
G04 #@! TD*
G04 #@! TA.AperFunction,Conductor*
%ADD18C,0.508000*%
G04 #@! TD*
G04 #@! TA.AperFunction,Conductor*
%ADD19C,0.152400*%
G04 #@! TD*
G04 APERTURE END LIST*
D10*
G04 #@! TO.P,RED3,C*
G04 #@! TO.N,Net-(R1-Pad1)*
X1524000Y27698000D03*
G04 #@! TO.P,RED3,A*
G04 #@! TO.N,/VCC*
X1524000Y29198000D03*
G04 #@! TD*
G04 #@! TO.P,RED3,A*
G04 #@! TO.N,/VCC*
X1524000Y15990000D03*
G04 #@! TO.P,RED3,C*
G04 #@! TO.N,Net-(R1-Pad1)*
X1524000Y14490000D03*
G04 #@! TD*
G04 #@! TO.P,GREEN3,C*
G04 #@! TO.N,Net-(GREEN1-PadC)*
X38100000Y14490000D03*
G04 #@! TO.P,GREEN3,A*
G04 #@! TO.N,/VCC*
X38100000Y15990000D03*
G04 #@! TD*
G04 #@! TO.P,GREEN3,A*
G04 #@! TO.N,/VCC*
X38100000Y29198000D03*
G04 #@! TO.P,GREEN3,C*
G04 #@! TO.N,Net-(GREEN1-PadC)*
X38100000Y27698000D03*
G04 #@! TD*
D11*
G04 #@! TO.P,R1,2*
G04 #@! TO.N,/GND*
X5930000Y2032000D03*
G04 #@! TO.P,R1,1*
G04 #@! TO.N,Net-(R1-Pad1)*
X4230000Y2032000D03*
G04 #@! TD*
G04 #@! TO.P,R2,2*
G04 #@! TO.N,/GND*
X33860000Y2032000D03*
G04 #@! TO.P,R2,1*
G04 #@! TO.N,Net-(GREEN1-PadC)*
X35560000Y2032000D03*
G04 #@! TD*
D12*
G04 #@! TO.P,U$1,GND2*
G04 #@! TO.N,/GND*
X10340000Y1816000D03*
G04 #@! TO.P,U$1,GND1*
X20140000Y1816000D03*
D13*
G04 #@! TO.P,U$1,3*
G04 #@! TO.N,/VCC*
X13740000Y5316000D03*
G04 #@! TO.P,U$1,2*
G04 #@! TO.N,/BATT*
X15240000Y5316000D03*
G04 #@! TO.P,U$1,1*
G04 #@! TO.N,/FLOAT*
X16740000Y5316000D03*
G04 #@! TD*
D10*
G04 #@! TO.P,RED3,C*
G04 #@! TO.N,Net-(R1-Pad1)*
X1524000Y1282000D03*
G04 #@! TO.P,RED3,A*
G04 #@! TO.N,/VCC*
X1524000Y2782000D03*
G04 #@! TD*
G04 #@! TO.P,GREEN3,C*
G04 #@! TO.N,Net-(GREEN1-PadC)*
X38100000Y1282000D03*
G04 #@! TO.P,GREEN3,A*
G04 #@! TO.N,/VCC*
X38100000Y2782000D03*
G04 #@! TD*
D14*
G04 #@! TO.P,U$2,1*
G04 #@! TO.N,/GND*
X21336000Y9512600D03*
G04 #@! TO.P,U$2,3*
G04 #@! TO.N,/VCC*
X21336000Y6896400D03*
G04 #@! TO.P,U$2,2*
G04 #@! TO.N,/SIG*
X21336000Y8242600D03*
G04 #@! TD*
D15*
G04 #@! TO.P,U$3,PWR*
G04 #@! TO.N,/BATT*
X24908000Y10668000D03*
G04 #@! TO.P,U$3,GND*
G04 #@! TO.N,/GND*
X26908000Y10668000D03*
G04 #@! TD*
D16*
G04 #@! TO.N,/GND*
X12700000Y1524000D03*
X17780000Y1524000D03*
G04 #@! TD*
D17*
G04 #@! TO.N,Net-(R1-Pad1)*
X743000Y27698000D02*
X1524000Y27698000D01*
X508000Y27463000D02*
X743000Y27698000D01*
X743000Y1282000D02*
X508000Y1517000D01*
X1524000Y1282000D02*
X743000Y1282000D01*
X508000Y14725000D02*
X508000Y14732000D01*
X743000Y14490000D02*
X508000Y14725000D01*
X1524000Y14490000D02*
X743000Y14490000D01*
X508000Y1517000D02*
X508000Y14732000D01*
X508000Y14732000D02*
X508000Y27463000D01*
X3480000Y1282000D02*
X4230000Y2032000D01*
X1524000Y1282000D02*
X3480000Y1282000D01*
D18*
G04 #@! TO.N,/VCC*
X21336000Y6896400D02*
X17487600Y3048000D01*
X13740000Y3558000D02*
X13740000Y5316000D01*
X14250000Y3048000D02*
X13740000Y3558000D01*
X17487600Y3048000D02*
X14250000Y3048000D01*
D17*
X2305000Y29198000D02*
X2540000Y28963000D01*
X1524000Y29198000D02*
X2305000Y29198000D01*
X13738000Y3556000D02*
X13740000Y3558000D01*
X2540000Y3556000D02*
X13738000Y3556000D01*
X2540000Y3017000D02*
X2540000Y3556000D01*
X2305000Y2782000D02*
X2540000Y3017000D01*
X1524000Y2782000D02*
X2305000Y2782000D01*
X24676400Y3556000D02*
X21336000Y6896400D01*
X37084000Y3556000D02*
X24676400Y3556000D01*
X37084000Y28963000D02*
X37084000Y3556000D01*
X38100000Y29198000D02*
X37319000Y29198000D01*
X37319000Y29198000D02*
X37084000Y28963000D01*
X37084000Y3017000D02*
X37084000Y3556000D01*
X37319000Y2782000D02*
X37084000Y3017000D01*
X38100000Y2782000D02*
X37319000Y2782000D01*
X2540000Y15755000D02*
X2540000Y15240000D01*
X2305000Y15990000D02*
X2540000Y15755000D01*
X1524000Y15990000D02*
X2305000Y15990000D01*
X2540000Y28963000D02*
X2540000Y15240000D01*
X2540000Y15240000D02*
X2540000Y3556000D01*
X37319000Y15990000D02*
X37084000Y15755000D01*
X38100000Y15990000D02*
X37319000Y15990000D01*
G04 #@! TO.N,Net-(GREEN1-PadC)*
X38881000Y27698000D02*
X38100000Y27698000D01*
X39116000Y27463000D02*
X38881000Y27698000D01*
X38881000Y1282000D02*
X39116000Y1517000D01*
X38100000Y1282000D02*
X38881000Y1282000D01*
X39116000Y14725000D02*
X39116000Y14732000D01*
X38100000Y14490000D02*
X38881000Y14490000D01*
X38881000Y14490000D02*
X39116000Y14725000D01*
X39116000Y1517000D02*
X39116000Y14732000D01*
X39116000Y14732000D02*
X39116000Y27463000D01*
X36310000Y1282000D02*
X35560000Y2032000D01*
X38100000Y1282000D02*
X36310000Y1282000D01*
D18*
G04 #@! TO.N,/BATT*
X24908000Y10668000D02*
X24892000Y10668000D01*
X24892000Y10668000D02*
X24384000Y11176000D01*
X24384000Y11176000D02*
X19304000Y11176000D01*
X15240000Y7112000D02*
X15240000Y5316000D01*
X19304000Y11176000D02*
X15240000Y7112000D01*
G04 #@! TD*
D19*
G04 #@! TO.N,/GND*
G36*
X24330184Y3242203D02*
X24344797Y3224397D01*
X24362603Y3209784D01*
X24362604Y3209783D01*
X24415860Y3166076D01*
X24442311Y3151938D01*
X24496938Y3122739D01*
X24584911Y3096053D01*
X24653474Y3089300D01*
X24653485Y3089300D01*
X24676400Y3087043D01*
X24699315Y3089300D01*
X35991800Y3089300D01*
X35991800Y2859536D01*
X35060000Y2859536D01*
X35005855Y2854203D01*
X34953792Y2838410D01*
X34905809Y2812763D01*
X34863752Y2778248D01*
X34829237Y2736191D01*
X34803590Y2688208D01*
X34787797Y2636145D01*
X34782464Y2582000D01*
X34782464Y1482000D01*
X34787797Y1427855D01*
X34803590Y1375792D01*
X34829237Y1327809D01*
X34863752Y1285752D01*
X34905809Y1251237D01*
X34953792Y1225590D01*
X35005855Y1209797D01*
X35060000Y1204464D01*
X35727523Y1204464D01*
X35963783Y968204D01*
X35978397Y950397D01*
X35991800Y939397D01*
X35991800Y101200D01*
X3632200Y101200D01*
X3632200Y840469D01*
X3659462Y848739D01*
X3740539Y892076D01*
X3811603Y950397D01*
X3826221Y968209D01*
X4062476Y1204464D01*
X4730000Y1204464D01*
X4784145Y1209797D01*
X4836208Y1225590D01*
X4884191Y1251237D01*
X4926248Y1285752D01*
X4960763Y1327809D01*
X4986410Y1375792D01*
X5002203Y1427855D01*
X5007536Y1482000D01*
X5007536Y1937350D01*
X5151400Y1937350D01*
X5151400Y1454561D01*
X5162106Y1400736D01*
X5183108Y1350034D01*
X5213597Y1304403D01*
X5252403Y1265597D01*
X5298033Y1235108D01*
X5348735Y1214106D01*
X5402560Y1203400D01*
X5835350Y1203400D01*
X5905000Y1273050D01*
X5905000Y2007000D01*
X5955000Y2007000D01*
X5955000Y1273050D01*
X6024650Y1203400D01*
X6457440Y1203400D01*
X6511265Y1214106D01*
X6561967Y1235108D01*
X6607597Y1265597D01*
X6646403Y1304403D01*
X6676892Y1350034D01*
X6697894Y1400736D01*
X6708600Y1454561D01*
X6708600Y1721350D01*
X9211400Y1721350D01*
X9211400Y938560D01*
X9222106Y884735D01*
X9243108Y834033D01*
X9273597Y788403D01*
X9312403Y749597D01*
X9358034Y719108D01*
X9408736Y698106D01*
X9462561Y687400D01*
X10245350Y687400D01*
X10315000Y757050D01*
X10315000Y1791000D01*
X10365000Y1791000D01*
X10365000Y757050D01*
X10434650Y687400D01*
X11217439Y687400D01*
X11271264Y698106D01*
X11321966Y719108D01*
X11367597Y749597D01*
X11406403Y788403D01*
X11436892Y834033D01*
X11457894Y884735D01*
X11468600Y938560D01*
X11468600Y1721350D01*
X19011400Y1721350D01*
X19011400Y938560D01*
X19022106Y884735D01*
X19043108Y834033D01*
X19073597Y788403D01*
X19112403Y749597D01*
X19158034Y719108D01*
X19208736Y698106D01*
X19262561Y687400D01*
X20045350Y687400D01*
X20115000Y757050D01*
X20115000Y1791000D01*
X20165000Y1791000D01*
X20165000Y757050D01*
X20234650Y687400D01*
X21017439Y687400D01*
X21071264Y698106D01*
X21121966Y719108D01*
X21167597Y749597D01*
X21206403Y788403D01*
X21236892Y834033D01*
X21257894Y884735D01*
X21268600Y938560D01*
X21268600Y1721350D01*
X21198950Y1791000D01*
X20165000Y1791000D01*
X20115000Y1791000D01*
X19081050Y1791000D01*
X19011400Y1721350D01*
X11468600Y1721350D01*
X11398950Y1791000D01*
X10365000Y1791000D01*
X10315000Y1791000D01*
X9281050Y1791000D01*
X9211400Y1721350D01*
X6708600Y1721350D01*
X6708600Y1937350D01*
X6638950Y2007000D01*
X5955000Y2007000D01*
X5905000Y2007000D01*
X5221050Y2007000D01*
X5151400Y1937350D01*
X5007536Y1937350D01*
X5007536Y2582000D01*
X5004834Y2609439D01*
X5151400Y2609439D01*
X5151400Y2126650D01*
X5221050Y2057000D01*
X5905000Y2057000D01*
X5905000Y2790950D01*
X5955000Y2790950D01*
X5955000Y2057000D01*
X6638950Y2057000D01*
X6708600Y2126650D01*
X6708600Y2609439D01*
X6697894Y2663264D01*
X6685395Y2693440D01*
X9211400Y2693440D01*
X9211400Y1910650D01*
X9281050Y1841000D01*
X10315000Y1841000D01*
X10315000Y2874950D01*
X10365000Y2874950D01*
X10365000Y1841000D01*
X11398950Y1841000D01*
X11468600Y1910650D01*
X11468600Y2693440D01*
X11457894Y2747265D01*
X11436892Y2797967D01*
X11406403Y2843597D01*
X11367597Y2882403D01*
X11321966Y2912892D01*
X11271264Y2933894D01*
X11217439Y2944600D01*
X10434650Y2944600D01*
X10365000Y2874950D01*
X10315000Y2874950D01*
X10245350Y2944600D01*
X9462561Y2944600D01*
X9408736Y2933894D01*
X9358034Y2912892D01*
X9312403Y2882403D01*
X9273597Y2843597D01*
X9243108Y2797967D01*
X9222106Y2747265D01*
X9211400Y2693440D01*
X6685395Y2693440D01*
X6676892Y2713966D01*
X6646403Y2759597D01*
X6607597Y2798403D01*
X6561967Y2828892D01*
X6511265Y2849894D01*
X6457440Y2860600D01*
X6024650Y2860600D01*
X5955000Y2790950D01*
X5905000Y2790950D01*
X5835350Y2860600D01*
X5402560Y2860600D01*
X5348735Y2849894D01*
X5298033Y2828892D01*
X5252403Y2798403D01*
X5213597Y2759597D01*
X5183108Y2713966D01*
X5162106Y2663264D01*
X5151400Y2609439D01*
X5004834Y2609439D01*
X5002203Y2636145D01*
X4986410Y2688208D01*
X4960763Y2736191D01*
X4926248Y2778248D01*
X4884191Y2812763D01*
X4836208Y2838410D01*
X4784145Y2854203D01*
X4730000Y2859536D01*
X3730000Y2859536D01*
X3675855Y2854203D01*
X3632200Y2840961D01*
X3632200Y3089300D01*
X13458885Y3089300D01*
X13856675Y2691509D01*
X13873278Y2671278D01*
X13954012Y2605022D01*
X14046120Y2555789D01*
X14146063Y2525472D01*
X14223957Y2517800D01*
X14223960Y2517800D01*
X14250000Y2515235D01*
X14276040Y2517800D01*
X17461560Y2517800D01*
X17487600Y2515235D01*
X17513640Y2517800D01*
X17513643Y2517800D01*
X17591537Y2525472D01*
X17691480Y2555789D01*
X17783588Y2605022D01*
X17864322Y2671278D01*
X17880929Y2691514D01*
X17882855Y2693440D01*
X19011400Y2693440D01*
X19011400Y1910650D01*
X19081050Y1841000D01*
X20115000Y1841000D01*
X20115000Y2874950D01*
X20165000Y2874950D01*
X20165000Y1841000D01*
X21198950Y1841000D01*
X21268600Y1910650D01*
X21268600Y1937350D01*
X33081400Y1937350D01*
X33081400Y1454561D01*
X33092106Y1400736D01*
X33113108Y1350034D01*
X33143597Y1304403D01*
X33182403Y1265597D01*
X33228033Y1235108D01*
X33278735Y1214106D01*
X33332560Y1203400D01*
X33765350Y1203400D01*
X33835000Y1273050D01*
X33835000Y2007000D01*
X33885000Y2007000D01*
X33885000Y1273050D01*
X33954650Y1203400D01*
X34387440Y1203400D01*
X34441265Y1214106D01*
X34491967Y1235108D01*
X34537597Y1265597D01*
X34576403Y1304403D01*
X34606892Y1350034D01*
X34627894Y1400736D01*
X34638600Y1454561D01*
X34638600Y1937350D01*
X34568950Y2007000D01*
X33885000Y2007000D01*
X33835000Y2007000D01*
X33151050Y2007000D01*
X33081400Y1937350D01*
X21268600Y1937350D01*
X21268600Y2609439D01*
X33081400Y2609439D01*
X33081400Y2126650D01*
X33151050Y2057000D01*
X33835000Y2057000D01*
X33835000Y2790950D01*
X33885000Y2790950D01*
X33885000Y2057000D01*
X34568950Y2057000D01*
X34638600Y2126650D01*
X34638600Y2609439D01*
X34627894Y2663264D01*
X34606892Y2713966D01*
X34576403Y2759597D01*
X34537597Y2798403D01*
X34491967Y2828892D01*
X34441265Y2849894D01*
X34387440Y2860600D01*
X33954650Y2860600D01*
X33885000Y2790950D01*
X33835000Y2790950D01*
X33765350Y2860600D01*
X33332560Y2860600D01*
X33278735Y2849894D01*
X33228033Y2828892D01*
X33182403Y2798403D01*
X33143597Y2759597D01*
X33113108Y2713966D01*
X33092106Y2663264D01*
X33081400Y2609439D01*
X21268600Y2609439D01*
X21268600Y2693440D01*
X21257894Y2747265D01*
X21236892Y2797967D01*
X21206403Y2843597D01*
X21167597Y2882403D01*
X21121966Y2912892D01*
X21071264Y2933894D01*
X21017439Y2944600D01*
X20234650Y2944600D01*
X20165000Y2874950D01*
X20115000Y2874950D01*
X20045350Y2944600D01*
X19262561Y2944600D01*
X19208736Y2933894D01*
X19158034Y2912892D01*
X19112403Y2882403D01*
X19073597Y2843597D01*
X19043108Y2797967D01*
X19022106Y2747265D01*
X19011400Y2693440D01*
X17882855Y2693440D01*
X21301616Y6112200D01*
X21413237Y6112200D01*
X21452398Y6119990D01*
X24330184Y3242203D01*
X24330184Y3242203D01*
G37*
X24330184Y3242203D02*
X24344797Y3224397D01*
X24362603Y3209784D01*
X24362604Y3209783D01*
X24415860Y3166076D01*
X24442311Y3151938D01*
X24496938Y3122739D01*
X24584911Y3096053D01*
X24653474Y3089300D01*
X24653485Y3089300D01*
X24676400Y3087043D01*
X24699315Y3089300D01*
X35991800Y3089300D01*
X35991800Y2859536D01*
X35060000Y2859536D01*
X35005855Y2854203D01*
X34953792Y2838410D01*
X34905809Y2812763D01*
X34863752Y2778248D01*
X34829237Y2736191D01*
X34803590Y2688208D01*
X34787797Y2636145D01*
X34782464Y2582000D01*
X34782464Y1482000D01*
X34787797Y1427855D01*
X34803590Y1375792D01*
X34829237Y1327809D01*
X34863752Y1285752D01*
X34905809Y1251237D01*
X34953792Y1225590D01*
X35005855Y1209797D01*
X35060000Y1204464D01*
X35727523Y1204464D01*
X35963783Y968204D01*
X35978397Y950397D01*
X35991800Y939397D01*
X35991800Y101200D01*
X3632200Y101200D01*
X3632200Y840469D01*
X3659462Y848739D01*
X3740539Y892076D01*
X3811603Y950397D01*
X3826221Y968209D01*
X4062476Y1204464D01*
X4730000Y1204464D01*
X4784145Y1209797D01*
X4836208Y1225590D01*
X4884191Y1251237D01*
X4926248Y1285752D01*
X4960763Y1327809D01*
X4986410Y1375792D01*
X5002203Y1427855D01*
X5007536Y1482000D01*
X5007536Y1937350D01*
X5151400Y1937350D01*
X5151400Y1454561D01*
X5162106Y1400736D01*
X5183108Y1350034D01*
X5213597Y1304403D01*
X5252403Y1265597D01*
X5298033Y1235108D01*
X5348735Y1214106D01*
X5402560Y1203400D01*
X5835350Y1203400D01*
X5905000Y1273050D01*
X5905000Y2007000D01*
X5955000Y2007000D01*
X5955000Y1273050D01*
X6024650Y1203400D01*
X6457440Y1203400D01*
X6511265Y1214106D01*
X6561967Y1235108D01*
X6607597Y1265597D01*
X6646403Y1304403D01*
X6676892Y1350034D01*
X6697894Y1400736D01*
X6708600Y1454561D01*
X6708600Y1721350D01*
X9211400Y1721350D01*
X9211400Y938560D01*
X9222106Y884735D01*
X9243108Y834033D01*
X9273597Y788403D01*
X9312403Y749597D01*
X9358034Y719108D01*
X9408736Y698106D01*
X9462561Y687400D01*
X10245350Y687400D01*
X10315000Y757050D01*
X10315000Y1791000D01*
X10365000Y1791000D01*
X10365000Y757050D01*
X10434650Y687400D01*
X11217439Y687400D01*
X11271264Y698106D01*
X11321966Y719108D01*
X11367597Y749597D01*
X11406403Y788403D01*
X11436892Y834033D01*
X11457894Y884735D01*
X11468600Y938560D01*
X11468600Y1721350D01*
X19011400Y1721350D01*
X19011400Y938560D01*
X19022106Y884735D01*
X19043108Y834033D01*
X19073597Y788403D01*
X19112403Y749597D01*
X19158034Y719108D01*
X19208736Y698106D01*
X19262561Y687400D01*
X20045350Y687400D01*
X20115000Y757050D01*
X20115000Y1791000D01*
X20165000Y1791000D01*
X20165000Y757050D01*
X20234650Y687400D01*
X21017439Y687400D01*
X21071264Y698106D01*
X21121966Y719108D01*
X21167597Y749597D01*
X21206403Y788403D01*
X21236892Y834033D01*
X21257894Y884735D01*
X21268600Y938560D01*
X21268600Y1721350D01*
X21198950Y1791000D01*
X20165000Y1791000D01*
X20115000Y1791000D01*
X19081050Y1791000D01*
X19011400Y1721350D01*
X11468600Y1721350D01*
X11398950Y1791000D01*
X10365000Y1791000D01*
X10315000Y1791000D01*
X9281050Y1791000D01*
X9211400Y1721350D01*
X6708600Y1721350D01*
X6708600Y1937350D01*
X6638950Y2007000D01*
X5955000Y2007000D01*
X5905000Y2007000D01*
X5221050Y2007000D01*
X5151400Y1937350D01*
X5007536Y1937350D01*
X5007536Y2582000D01*
X5004834Y2609439D01*
X5151400Y2609439D01*
X5151400Y2126650D01*
X5221050Y2057000D01*
X5905000Y2057000D01*
X5905000Y2790950D01*
X5955000Y2790950D01*
X5955000Y2057000D01*
X6638950Y2057000D01*
X6708600Y2126650D01*
X6708600Y2609439D01*
X6697894Y2663264D01*
X6685395Y2693440D01*
X9211400Y2693440D01*
X9211400Y1910650D01*
X9281050Y1841000D01*
X10315000Y1841000D01*
X10315000Y2874950D01*
X10365000Y2874950D01*
X10365000Y1841000D01*
X11398950Y1841000D01*
X11468600Y1910650D01*
X11468600Y2693440D01*
X11457894Y2747265D01*
X11436892Y2797967D01*
X11406403Y2843597D01*
X11367597Y2882403D01*
X11321966Y2912892D01*
X11271264Y2933894D01*
X11217439Y2944600D01*
X10434650Y2944600D01*
X10365000Y2874950D01*
X10315000Y2874950D01*
X10245350Y2944600D01*
X9462561Y2944600D01*
X9408736Y2933894D01*
X9358034Y2912892D01*
X9312403Y2882403D01*
X9273597Y2843597D01*
X9243108Y2797967D01*
X9222106Y2747265D01*
X9211400Y2693440D01*
X6685395Y2693440D01*
X6676892Y2713966D01*
X6646403Y2759597D01*
X6607597Y2798403D01*
X6561967Y2828892D01*
X6511265Y2849894D01*
X6457440Y2860600D01*
X6024650Y2860600D01*
X5955000Y2790950D01*
X5905000Y2790950D01*
X5835350Y2860600D01*
X5402560Y2860600D01*
X5348735Y2849894D01*
X5298033Y2828892D01*
X5252403Y2798403D01*
X5213597Y2759597D01*
X5183108Y2713966D01*
X5162106Y2663264D01*
X5151400Y2609439D01*
X5004834Y2609439D01*
X5002203Y2636145D01*
X4986410Y2688208D01*
X4960763Y2736191D01*
X4926248Y2778248D01*
X4884191Y2812763D01*
X4836208Y2838410D01*
X4784145Y2854203D01*
X4730000Y2859536D01*
X3730000Y2859536D01*
X3675855Y2854203D01*
X3632200Y2840961D01*
X3632200Y3089300D01*
X13458885Y3089300D01*
X13856675Y2691509D01*
X13873278Y2671278D01*
X13954012Y2605022D01*
X14046120Y2555789D01*
X14146063Y2525472D01*
X14223957Y2517800D01*
X14223960Y2517800D01*
X14250000Y2515235D01*
X14276040Y2517800D01*
X17461560Y2517800D01*
X17487600Y2515235D01*
X17513640Y2517800D01*
X17513643Y2517800D01*
X17591537Y2525472D01*
X17691480Y2555789D01*
X17783588Y2605022D01*
X17864322Y2671278D01*
X17880929Y2691514D01*
X17882855Y2693440D01*
X19011400Y2693440D01*
X19011400Y1910650D01*
X19081050Y1841000D01*
X20115000Y1841000D01*
X20115000Y2874950D01*
X20165000Y2874950D01*
X20165000Y1841000D01*
X21198950Y1841000D01*
X21268600Y1910650D01*
X21268600Y1937350D01*
X33081400Y1937350D01*
X33081400Y1454561D01*
X33092106Y1400736D01*
X33113108Y1350034D01*
X33143597Y1304403D01*
X33182403Y1265597D01*
X33228033Y1235108D01*
X33278735Y1214106D01*
X33332560Y1203400D01*
X33765350Y1203400D01*
X33835000Y1273050D01*
X33835000Y2007000D01*
X33885000Y2007000D01*
X33885000Y1273050D01*
X33954650Y1203400D01*
X34387440Y1203400D01*
X34441265Y1214106D01*
X34491967Y1235108D01*
X34537597Y1265597D01*
X34576403Y1304403D01*
X34606892Y1350034D01*
X34627894Y1400736D01*
X34638600Y1454561D01*
X34638600Y1937350D01*
X34568950Y2007000D01*
X33885000Y2007000D01*
X33835000Y2007000D01*
X33151050Y2007000D01*
X33081400Y1937350D01*
X21268600Y1937350D01*
X21268600Y2609439D01*
X33081400Y2609439D01*
X33081400Y2126650D01*
X33151050Y2057000D01*
X33835000Y2057000D01*
X33835000Y2790950D01*
X33885000Y2790950D01*
X33885000Y2057000D01*
X34568950Y2057000D01*
X34638600Y2126650D01*
X34638600Y2609439D01*
X34627894Y2663264D01*
X34606892Y2713966D01*
X34576403Y2759597D01*
X34537597Y2798403D01*
X34491967Y2828892D01*
X34441265Y2849894D01*
X34387440Y2860600D01*
X33954650Y2860600D01*
X33885000Y2790950D01*
X33835000Y2790950D01*
X33765350Y2860600D01*
X33332560Y2860600D01*
X33278735Y2849894D01*
X33228033Y2828892D01*
X33182403Y2798403D01*
X33143597Y2759597D01*
X33113108Y2713966D01*
X33092106Y2663264D01*
X33081400Y2609439D01*
X21268600Y2609439D01*
X21268600Y2693440D01*
X21257894Y2747265D01*
X21236892Y2797967D01*
X21206403Y2843597D01*
X21167597Y2882403D01*
X21121966Y2912892D01*
X21071264Y2933894D01*
X21017439Y2944600D01*
X20234650Y2944600D01*
X20165000Y2874950D01*
X20115000Y2874950D01*
X20045350Y2944600D01*
X19262561Y2944600D01*
X19208736Y2933894D01*
X19158034Y2912892D01*
X19112403Y2882403D01*
X19073597Y2843597D01*
X19043108Y2797967D01*
X19022106Y2747265D01*
X19011400Y2693440D01*
X17882855Y2693440D01*
X21301616Y6112200D01*
X21413237Y6112200D01*
X21452398Y6119990D01*
X24330184Y3242203D01*
G36*
X28819801Y4070700D02*
X28819141Y4064000D01*
X28821771Y4037300D01*
X28826200Y4022700D01*
X24869713Y4022700D01*
X22112410Y6780002D01*
X22120200Y6819163D01*
X22120200Y6973637D01*
X22090063Y7125143D01*
X22030949Y7267858D01*
X21945128Y7396298D01*
X21835898Y7505528D01*
X21740157Y7569500D01*
X21835898Y7633472D01*
X21945128Y7742702D01*
X22030949Y7871142D01*
X22090063Y8013857D01*
X22120200Y8165363D01*
X22120200Y8319837D01*
X22090063Y8471343D01*
X22030949Y8614058D01*
X21945128Y8742498D01*
X21835898Y8851728D01*
X21789190Y8882937D01*
X21827667Y8985578D01*
X21336000Y9477245D01*
X20844333Y8985578D01*
X20882810Y8882937D01*
X20836102Y8851728D01*
X20726872Y8742498D01*
X20641051Y8614058D01*
X20581937Y8471343D01*
X20551800Y8319837D01*
X20551800Y8165363D01*
X20581937Y8013857D01*
X20641051Y7871142D01*
X20726872Y7742702D01*
X20836102Y7633472D01*
X20931843Y7569500D01*
X20836102Y7505528D01*
X20726872Y7396298D01*
X20641051Y7267858D01*
X20581937Y7125143D01*
X20551800Y6973637D01*
X20551800Y6862016D01*
X17267985Y3578200D01*
X14469616Y3578200D01*
X14270200Y3777615D01*
X14270200Y3791439D01*
X14294145Y3793797D01*
X14346208Y3809590D01*
X14394191Y3835237D01*
X14436248Y3869752D01*
X14470763Y3911809D01*
X14490000Y3947800D01*
X14509237Y3911809D01*
X14543752Y3869752D01*
X14585809Y3835237D01*
X14633792Y3809590D01*
X14685855Y3793797D01*
X14740000Y3788464D01*
X15740000Y3788464D01*
X15794145Y3793797D01*
X15846208Y3809590D01*
X15894191Y3835237D01*
X15936248Y3869752D01*
X15970763Y3911809D01*
X15990000Y3947800D01*
X16009237Y3911809D01*
X16043752Y3869752D01*
X16085809Y3835237D01*
X16133792Y3809590D01*
X16185855Y3793797D01*
X16240000Y3788464D01*
X17240000Y3788464D01*
X17294145Y3793797D01*
X17346208Y3809590D01*
X17394191Y3835237D01*
X17436248Y3869752D01*
X17470763Y3911809D01*
X17496410Y3959792D01*
X17512203Y4011855D01*
X17517536Y4066000D01*
X17517536Y6566000D01*
X17512203Y6620145D01*
X17496410Y6672208D01*
X17470763Y6720191D01*
X17436248Y6762248D01*
X17394191Y6796763D01*
X17346208Y6822410D01*
X17294145Y6838203D01*
X17240000Y6843536D01*
X16240000Y6843536D01*
X16185855Y6838203D01*
X16133792Y6822410D01*
X16085809Y6796763D01*
X16043752Y6762248D01*
X16009237Y6720191D01*
X15990000Y6684200D01*
X15970763Y6720191D01*
X15936248Y6762248D01*
X15894191Y6796763D01*
X15846208Y6822410D01*
X15794145Y6838203D01*
X15770200Y6840561D01*
X15770200Y6892385D01*
X18396449Y9518634D01*
X20545616Y9518634D01*
X20559626Y9364322D01*
X20603471Y9215708D01*
X20675467Y9078504D01*
X20682173Y9068468D01*
X20808978Y9020933D01*
X21300645Y9512600D01*
X21371355Y9512600D01*
X21863022Y9020933D01*
X21989827Y9068468D01*
X22063910Y9204557D01*
X22110020Y9352485D01*
X22126384Y9506566D01*
X22112374Y9660878D01*
X22068529Y9809492D01*
X21996533Y9946696D01*
X21989827Y9956732D01*
X21863022Y10004267D01*
X21371355Y9512600D01*
X21300645Y9512600D01*
X20808978Y10004267D01*
X20682173Y9956732D01*
X20608090Y9820643D01*
X20561980Y9672715D01*
X20545616Y9518634D01*
X18396449Y9518634D01*
X18917437Y10039622D01*
X20844333Y10039622D01*
X21336000Y9547955D01*
X21827667Y10039622D01*
X21780132Y10166427D01*
X21644043Y10240510D01*
X21496115Y10286620D01*
X21342034Y10302984D01*
X21187722Y10288974D01*
X21039108Y10245129D01*
X20901904Y10173133D01*
X20891868Y10166427D01*
X20844333Y10039622D01*
X18917437Y10039622D01*
X19523616Y10645800D01*
X24027800Y10645800D01*
X24027800Y10581308D01*
X24061626Y10411255D01*
X24127977Y10251069D01*
X24224304Y10106905D01*
X24346905Y9984304D01*
X24491069Y9887977D01*
X24651255Y9821626D01*
X24821308Y9787800D01*
X24994692Y9787800D01*
X25164745Y9821626D01*
X25324931Y9887977D01*
X25469095Y9984304D01*
X25557521Y10072730D01*
X26348085Y10072730D01*
X26407142Y9936096D01*
X26559553Y9852447D01*
X26725355Y9800139D01*
X26898175Y9781182D01*
X27071374Y9796306D01*
X27238294Y9844928D01*
X27392521Y9925180D01*
X27408858Y9936096D01*
X27467915Y10072730D01*
X26908000Y10632645D01*
X26348085Y10072730D01*
X25557521Y10072730D01*
X25591696Y10106905D01*
X25688023Y10251069D01*
X25754374Y10411255D01*
X25788200Y10581308D01*
X25788200Y10677825D01*
X26021182Y10677825D01*
X26036306Y10504626D01*
X26084928Y10337706D01*
X26165180Y10183479D01*
X26176096Y10167142D01*
X26312730Y10108085D01*
X26872645Y10668000D01*
X26943355Y10668000D01*
X27503270Y10108085D01*
X27639904Y10167142D01*
X27723553Y10319553D01*
X27775861Y10485355D01*
X27794818Y10658175D01*
X27779694Y10831374D01*
X27731072Y10998294D01*
X27650820Y11152521D01*
X27639904Y11168858D01*
X27503270Y11227915D01*
X26943355Y10668000D01*
X26872645Y10668000D01*
X26312730Y11227915D01*
X26176096Y11168858D01*
X26092447Y11016447D01*
X26040139Y10850645D01*
X26021182Y10677825D01*
X25788200Y10677825D01*
X25788200Y10754692D01*
X25754374Y10924745D01*
X25688023Y11084931D01*
X25591696Y11229095D01*
X25557521Y11263270D01*
X26348085Y11263270D01*
X26908000Y10703355D01*
X27467915Y11263270D01*
X27408858Y11399904D01*
X27256447Y11483553D01*
X27090645Y11535861D01*
X26917825Y11554818D01*
X26744626Y11539694D01*
X26577706Y11491072D01*
X26423479Y11410820D01*
X26407142Y11399904D01*
X26348085Y11263270D01*
X25557521Y11263270D01*
X25469095Y11351696D01*
X25324931Y11448023D01*
X25164745Y11514374D01*
X24994692Y11548200D01*
X24821308Y11548200D01*
X24772415Y11538474D01*
X24760722Y11552722D01*
X24679988Y11618978D01*
X24587880Y11668211D01*
X24487937Y11698528D01*
X24410043Y11706200D01*
X24410040Y11706200D01*
X24384000Y11708765D01*
X24357960Y11706200D01*
X19330040Y11706200D01*
X19304000Y11708765D01*
X19277960Y11706200D01*
X19277957Y11706200D01*
X19200063Y11698528D01*
X19100120Y11668211D01*
X19008012Y11618978D01*
X18927278Y11552722D01*
X18910675Y11532491D01*
X14883514Y7505329D01*
X14863278Y7488722D01*
X14797022Y7407988D01*
X14747789Y7315879D01*
X14717472Y7215936D01*
X14709800Y7138043D01*
X14707235Y7112000D01*
X14709800Y7085960D01*
X14709800Y6840561D01*
X14685855Y6838203D01*
X14633792Y6822410D01*
X14585809Y6796763D01*
X14543752Y6762248D01*
X14509237Y6720191D01*
X14490000Y6684200D01*
X14470763Y6720191D01*
X14436248Y6762248D01*
X14394191Y6796763D01*
X14346208Y6822410D01*
X14294145Y6838203D01*
X14240000Y6843536D01*
X13240000Y6843536D01*
X13185855Y6838203D01*
X13133792Y6822410D01*
X13085809Y6796763D01*
X13043752Y6762248D01*
X13009237Y6720191D01*
X12983590Y6672208D01*
X12967797Y6620145D01*
X12962464Y6566000D01*
X12962464Y4066000D01*
X12966729Y4022700D01*
X9803315Y4022700D01*
X18090416Y12309800D01*
X28819800Y12309800D01*
X28819801Y4070700D01*
X28819801Y4070700D01*
G37*
X28819801Y4070700D02*
X28819141Y4064000D01*
X28821771Y4037300D01*
X28826200Y4022700D01*
X24869713Y4022700D01*
X22112410Y6780002D01*
X22120200Y6819163D01*
X22120200Y6973637D01*
X22090063Y7125143D01*
X22030949Y7267858D01*
X21945128Y7396298D01*
X21835898Y7505528D01*
X21740157Y7569500D01*
X21835898Y7633472D01*
X21945128Y7742702D01*
X22030949Y7871142D01*
X22090063Y8013857D01*
X22120200Y8165363D01*
X22120200Y8319837D01*
X22090063Y8471343D01*
X22030949Y8614058D01*
X21945128Y8742498D01*
X21835898Y8851728D01*
X21789190Y8882937D01*
X21827667Y8985578D01*
X21336000Y9477245D01*
X20844333Y8985578D01*
X20882810Y8882937D01*
X20836102Y8851728D01*
X20726872Y8742498D01*
X20641051Y8614058D01*
X20581937Y8471343D01*
X20551800Y8319837D01*
X20551800Y8165363D01*
X20581937Y8013857D01*
X20641051Y7871142D01*
X20726872Y7742702D01*
X20836102Y7633472D01*
X20931843Y7569500D01*
X20836102Y7505528D01*
X20726872Y7396298D01*
X20641051Y7267858D01*
X20581937Y7125143D01*
X20551800Y6973637D01*
X20551800Y6862016D01*
X17267985Y3578200D01*
X14469616Y3578200D01*
X14270200Y3777615D01*
X14270200Y3791439D01*
X14294145Y3793797D01*
X14346208Y3809590D01*
X14394191Y3835237D01*
X14436248Y3869752D01*
X14470763Y3911809D01*
X14490000Y3947800D01*
X14509237Y3911809D01*
X14543752Y3869752D01*
X14585809Y3835237D01*
X14633792Y3809590D01*
X14685855Y3793797D01*
X14740000Y3788464D01*
X15740000Y3788464D01*
X15794145Y3793797D01*
X15846208Y3809590D01*
X15894191Y3835237D01*
X15936248Y3869752D01*
X15970763Y3911809D01*
X15990000Y3947800D01*
X16009237Y3911809D01*
X16043752Y3869752D01*
X16085809Y3835237D01*
X16133792Y3809590D01*
X16185855Y3793797D01*
X16240000Y3788464D01*
X17240000Y3788464D01*
X17294145Y3793797D01*
X17346208Y3809590D01*
X17394191Y3835237D01*
X17436248Y3869752D01*
X17470763Y3911809D01*
X17496410Y3959792D01*
X17512203Y4011855D01*
X17517536Y4066000D01*
X17517536Y6566000D01*
X17512203Y6620145D01*
X17496410Y6672208D01*
X17470763Y6720191D01*
X17436248Y6762248D01*
X17394191Y6796763D01*
X17346208Y6822410D01*
X17294145Y6838203D01*
X17240000Y6843536D01*
X16240000Y6843536D01*
X16185855Y6838203D01*
X16133792Y6822410D01*
X16085809Y6796763D01*
X16043752Y6762248D01*
X16009237Y6720191D01*
X15990000Y6684200D01*
X15970763Y6720191D01*
X15936248Y6762248D01*
X15894191Y6796763D01*
X15846208Y6822410D01*
X15794145Y6838203D01*
X15770200Y6840561D01*
X15770200Y6892385D01*
X18396449Y9518634D01*
X20545616Y9518634D01*
X20559626Y9364322D01*
X20603471Y9215708D01*
X20675467Y9078504D01*
X20682173Y9068468D01*
X20808978Y9020933D01*
X21300645Y9512600D01*
X21371355Y9512600D01*
X21863022Y9020933D01*
X21989827Y9068468D01*
X22063910Y9204557D01*
X22110020Y9352485D01*
X22126384Y9506566D01*
X22112374Y9660878D01*
X22068529Y9809492D01*
X21996533Y9946696D01*
X21989827Y9956732D01*
X21863022Y10004267D01*
X21371355Y9512600D01*
X21300645Y9512600D01*
X20808978Y10004267D01*
X20682173Y9956732D01*
X20608090Y9820643D01*
X20561980Y9672715D01*
X20545616Y9518634D01*
X18396449Y9518634D01*
X18917437Y10039622D01*
X20844333Y10039622D01*
X21336000Y9547955D01*
X21827667Y10039622D01*
X21780132Y10166427D01*
X21644043Y10240510D01*
X21496115Y10286620D01*
X21342034Y10302984D01*
X21187722Y10288974D01*
X21039108Y10245129D01*
X20901904Y10173133D01*
X20891868Y10166427D01*
X20844333Y10039622D01*
X18917437Y10039622D01*
X19523616Y10645800D01*
X24027800Y10645800D01*
X24027800Y10581308D01*
X24061626Y10411255D01*
X24127977Y10251069D01*
X24224304Y10106905D01*
X24346905Y9984304D01*
X24491069Y9887977D01*
X24651255Y9821626D01*
X24821308Y9787800D01*
X24994692Y9787800D01*
X25164745Y9821626D01*
X25324931Y9887977D01*
X25469095Y9984304D01*
X25557521Y10072730D01*
X26348085Y10072730D01*
X26407142Y9936096D01*
X26559553Y9852447D01*
X26725355Y9800139D01*
X26898175Y9781182D01*
X27071374Y9796306D01*
X27238294Y9844928D01*
X27392521Y9925180D01*
X27408858Y9936096D01*
X27467915Y10072730D01*
X26908000Y10632645D01*
X26348085Y10072730D01*
X25557521Y10072730D01*
X25591696Y10106905D01*
X25688023Y10251069D01*
X25754374Y10411255D01*
X25788200Y10581308D01*
X25788200Y10677825D01*
X26021182Y10677825D01*
X26036306Y10504626D01*
X26084928Y10337706D01*
X26165180Y10183479D01*
X26176096Y10167142D01*
X26312730Y10108085D01*
X26872645Y10668000D01*
X26943355Y10668000D01*
X27503270Y10108085D01*
X27639904Y10167142D01*
X27723553Y10319553D01*
X27775861Y10485355D01*
X27794818Y10658175D01*
X27779694Y10831374D01*
X27731072Y10998294D01*
X27650820Y11152521D01*
X27639904Y11168858D01*
X27503270Y11227915D01*
X26943355Y10668000D01*
X26872645Y10668000D01*
X26312730Y11227915D01*
X26176096Y11168858D01*
X26092447Y11016447D01*
X26040139Y10850645D01*
X26021182Y10677825D01*
X25788200Y10677825D01*
X25788200Y10754692D01*
X25754374Y10924745D01*
X25688023Y11084931D01*
X25591696Y11229095D01*
X25557521Y11263270D01*
X26348085Y11263270D01*
X26908000Y10703355D01*
X27467915Y11263270D01*
X27408858Y11399904D01*
X27256447Y11483553D01*
X27090645Y11535861D01*
X26917825Y11554818D01*
X26744626Y11539694D01*
X26577706Y11491072D01*
X26423479Y11410820D01*
X26407142Y11399904D01*
X26348085Y11263270D01*
X25557521Y11263270D01*
X25469095Y11351696D01*
X25324931Y11448023D01*
X25164745Y11514374D01*
X24994692Y11548200D01*
X24821308Y11548200D01*
X24772415Y11538474D01*
X24760722Y11552722D01*
X24679988Y11618978D01*
X24587880Y11668211D01*
X24487937Y11698528D01*
X24410043Y11706200D01*
X24410040Y11706200D01*
X24384000Y11708765D01*
X24357960Y11706200D01*
X19330040Y11706200D01*
X19304000Y11708765D01*
X19277960Y11706200D01*
X19277957Y11706200D01*
X19200063Y11698528D01*
X19100120Y11668211D01*
X19008012Y11618978D01*
X18927278Y11552722D01*
X18910675Y11532491D01*
X14883514Y7505329D01*
X14863278Y7488722D01*
X14797022Y7407988D01*
X14747789Y7315879D01*
X14717472Y7215936D01*
X14709800Y7138043D01*
X14707235Y7112000D01*
X14709800Y7085960D01*
X14709800Y6840561D01*
X14685855Y6838203D01*
X14633792Y6822410D01*
X14585809Y6796763D01*
X14543752Y6762248D01*
X14509237Y6720191D01*
X14490000Y6684200D01*
X14470763Y6720191D01*
X14436248Y6762248D01*
X14394191Y6796763D01*
X14346208Y6822410D01*
X14294145Y6838203D01*
X14240000Y6843536D01*
X13240000Y6843536D01*
X13185855Y6838203D01*
X13133792Y6822410D01*
X13085809Y6796763D01*
X13043752Y6762248D01*
X13009237Y6720191D01*
X12983590Y6672208D01*
X12967797Y6620145D01*
X12962464Y6566000D01*
X12962464Y4066000D01*
X12966729Y4022700D01*
X9803315Y4022700D01*
X18090416Y12309800D01*
X28819800Y12309800D01*
X28819801Y4070700D01*
G04 #@! TD*
M02*
